v 0.866025 0 -0.5
vn 0.84938 0.19509 -0.49039
vt 0.08333 0.50000
v 0.92388 0.382683 0
vn 0.89649 0.37230 -0.24021
vt 0.00000 0.62500
v 1 0 0
vn 0.94858 0.18868 -0.25417
vt 0.00000 0.50000
f 1/1/1 2/2/2 3/3/3
v 0.866025 0 -0.5
vn 0.84938 0.19509 -0.49039
vt 0.08333 0.50000
v 0.800103 0.382683 -0.46194
vn 0.79980 0.38353 -0.46177
vt 0.08333 0.62500
v 0.92388 0.382683 0
vn 0.89649 0.37230 -0.24021
vt 0.00000 0.62500
f 4/4/4 5/5/5 6/6/6
v 0.5 0 -0.866025
vn 0.49039 0.19509 -0.84938
vt 0.16667 0.50000
v 0.800103 0.382683 -0.46194
vn 0.79980 0.38353 -0.46177
vt 0.08333 0.62500
v 0.866025 0 -0.5
vn 0.84938 0.19509 -0.49039
vt 0.08333 0.50000
f 7/7/7 8/8/8 9/9/9
v 0.5 0 -0.866025
vn 0.49039 0.19509 -0.84938
vt 0.16667 0.50000
v 0.46194 0.382683 -0.800103
vn 0.46177 0.38353 -0.79980
vt 0.16667 0.62500
v 0.800103 0.382683 -0.46194
vn 0.79980 0.38353 -0.46177
vt 0.08333 0.62500
f 10/10/10 11/11/11 12/12/12
v 0 0 -1
vn 0.00000 0.19509 -0.98079
vt 0.25000 0.50000
v 0.46194 0.382683 -0.800103
vn 0.46177 0.38353 -0.79980
vt 0.16667 0.62500
v 0.5 0 -0.866025
vn 0.49039 0.19509 -0.84938
vt 0.16667 0.50000
f 13/13/13 14/14/14 15/15/15
v 0 0 -1
vn 0.00000 0.19509 -0.98079
vt 0.25000 0.50000
v 0 0.382683 -0.92388
vn 0.00000 0.38353 -0.92353
vt 0.25000 0.62500
v 0.46194 0.382683 -0.800103
vn 0.46177 0.38353 -0.79980
vt 0.16667 0.62500
f 16/16/16 17/17/17 18/18/18
v -0.5 0 -0.866025
vn -0.49039 0.19509 -0.84939
vt 0.33333 0.50000
v 0 0.382683 -0.92388
vn 0.00000 0.38353 -0.92353
vt 0.25000 0.62500
v 0 0 -1
vn 0.00000 0.19509 -0.98079
vt 0.25000 0.50000
f 19/19/19 20/20/20 21/21/21
v -0.5 0 -0.866025
vn -0.49039 0.19509 -0.84939
vt 0.33333 0.50000
v -0.46194 0.382683 -0.800103
vn -0.46177 0.38353 -0.79980
vt 0.33333 0.62500
v 0 0.382683 -0.92388
vn 0.00000 0.38353 -0.92353
vt 0.25000 0.62500
f 22/22/22 23/23/23 24/24/24
v -0.866025 0 -0.5
vn -0.84938 0.19509 -0.49039
vt 0.41667 0.50000
v -0.46194 0.382683 -0.800103
vn -0.46177 0.38353 -0.79980
vt 0.33333 0.62500
v -0.5 0 -0.866025
vn -0.49039 0.19509 -0.84939
vt 0.33333 0.50000
f 25/25/25 26/26/26 27/27/27
v -0.866025 0 -0.5
vn -0.84938 0.19509 -0.49039
vt 0.41667 0.50000
v -0.800103 0.382683 -0.46194
vn -0.79980 0.38353 -0.46177
vt 0.41667 0.62500
v -0.46194 0.382683 -0.800103
vn -0.46177 0.38353 -0.79980
vt 0.33333 0.62500
f 28/28/28 29/29/29 30/30/30
v -1 0 0
vn -0.94858 0.18868 -0.25417
vt 0.50000 0.50000
v -0.800103 0.382683 -0.46194
vn -0.79980 0.38353 -0.46177
vt 0.41667 0.62500
v -0.866025 0 -0.5
vn -0.84938 0.19509 -0.49039
vt 0.41667 0.50000
f 31/31/31 32/32/32 33/33/33
v -1 0 0
vn -0.94858 0.18868 -0.25417
vt 0.50000 0.50000
v -0.92388 0.382683 0
vn -0.89649 0.37230 -0.24021
vt 0.50000 0.62500
v -0.800103 0.382683 -0.46194
vn -0.79980 0.38353 -0.46177
vt 0.41667 0.62500
f 34/34/34 35/35/35 36/36/36
v 0.800103 0.382683 -0.46194
vn 0.79980 0.38353 -0.46177
vt 0.08333 0.62500
v 0.707107 0.707107 0
vn 0.69386 0.69569 -0.18592
vt 0.00000 0.75000
v 0.92388 0.382683 0
vn 0.89649 0.37230 -0.24021
vt 0.00000 0.62500
f 37/37/37 38/38/38 39/39/39
v 0.800103 0.382683 -0.46194
vn 0.79980 0.38353 -0.46177
vt 0.08333 0.62500
v 0.612372 0.707107 -0.353553
vn 0.61156 0.70804 -0.35309
vt 0.08333 0.75000
v 0.707107 0.707107 0
vn 0.69386 0.69569 -0.18592
vt 0.00000 0.75000
f 40/40/40 41/41/41 42/42/42
v 0.46194 0.382683 -0.800103
vn 0.46177 0.38353 -0.79980
vt 0.16667 0.62500
v 0.612372 0.707107 -0.353553
vn 0.61156 0.70804 -0.35309
vt 0.08333 0.75000
v 0.800103 0.382683 -0.46194
vn 0.79980 0.38353 -0.46177
vt 0.08333 0.62500
f 43/43/43 44/44/44 45/45/45
v 0.46194 0.382683 -0.800103
vn 0.46177 0.38353 -0.79980
vt 0.16667 0.62500
v 0.353553 0.707107 -0.612372
vn 0.35309 0.70804 -0.61156
vt 0.16667 0.75000
v 0.612372 0.707107 -0.353553
vn 0.61156 0.70804 -0.35309
vt 0.08333 0.75000
f 46/46/46 47/47/47 48/48/48
v 0 0.382683 -0.92388
vn 0.00000 0.38353 -0.92353
vt 0.25000 0.62500
v 0.353553 0.707107 -0.612372
vn 0.35309 0.70804 -0.61156
vt 0.16667 0.75000
v 0.46194 0.382683 -0.800103
vn 0.46177 0.38353 -0.79980
vt 0.16667 0.62500
f 49/49/49 50/50/50 51/51/51
v 0 0.382683 -0.92388
vn 0.00000 0.38353 -0.92353
vt 0.25000 0.62500
v 0 0.707107 -0.707107
vn 0.00000 0.70804 -0.70617
vt 0.25000 0.75000
v 0.353553 0.707107 -0.612372
vn 0.35309 0.70804 -0.61156
vt 0.16667 0.75000
f 52/52/52 53/53/53 54/54/54
v -0.46194 0.382683 -0.800103
vn -0.46177 0.38353 -0.79980
vt 0.33333 0.62500
v 0 0.707107 -0.707107
vn 0.00000 0.70804 -0.70617
vt 0.25000 0.75000
v 0 0.382683 -0.92388
vn 0.00000 0.38353 -0.92353
vt 0.25000 0.62500
f 55/55/55 56/56/56 57/57/57
v -0.46194 0.382683 -0.800103
vn -0.46177 0.38353 -0.79980
vt 0.33333 0.62500
v -0.353553 0.707107 -0.612372
vn -0.35309 0.70804 -0.61156
vt 0.33333 0.75000
v 0 0.707107 -0.707107
vn 0.00000 0.70804 -0.70617
vt 0.25000 0.75000
f 58/58/58 59/59/59 60/60/60
v -0.800103 0.382683 -0.46194
vn -0.79980 0.38353 -0.46177
vt 0.41667 0.62500
v -0.353553 0.707107 -0.612372
vn -0.35309 0.70804 -0.61156
vt 0.33333 0.75000
v -0.46194 0.382683 -0.800103
vn -0.46177 0.38353 -0.79980
vt 0.33333 0.62500
f 61/61/61 62/62/62 63/63/63
v -0.800103 0.382683 -0.46194
vn -0.79980 0.38353 -0.46177
vt 0.41667 0.62500
v -0.612372 0.707107 -0.353553
vn -0.61156 0.70804 -0.35309
vt 0.41667 0.75000
v -0.353553 0.707107 -0.612372
vn -0.35309 0.70804 -0.61156
vt 0.33333 0.75000
f 64/64/64 65/65/65 66/66/66
v -0.92388 0.382683 0
vn -0.89649 0.37230 -0.24021
vt 0.50000 0.62500
v -0.612372 0.707107 -0.353553
vn -0.61156 0.70804 -0.35309
vt 0.41667 0.75000
v -0.800103 0.382683 -0.46194
vn -0.79980 0.38353 -0.46177
vt 0.41667 0.62500
f 67/67/67 68/68/68 69/69/69
v -0.92388 0.382683 0
vn -0.89649 0.37230 -0.24021
vt 0.50000 0.62500
v -0.707107 0.707107 0
vn -0.69386 0.69569 -0.18592
vt 0.50000 0.75000
v -0.612372 0.707107 -0.353553
vn -0.61156 0.70804 -0.35309
vt 0.41667 0.75000
f 70/70/70 71/71/71 72/72/72
v 0.612372 0.707107 -0.353553
vn 0.61156 0.70804 -0.35309
vt 0.08333 0.75000
v 0.382683 0.92388 0
vn 0.37982 0.91945 -0.10177
vt 0.00000 0.87500
v 0.707107 0.707107 0
vn 0.69386 0.69569 -0.18592
vt 0.00000 0.75000
f 73/73/73 74/74/74 75/75/75
v 0.612372 0.707107 -0.353553
vn 0.61156 0.70804 -0.35309
vt 0.08333 0.75000
v 0.331414 0.92388 -0.191342
vn 0.33065 0.92424 -0.19090
vt 0.08333 0.87500
v 0.382683 0.92388 0
vn 0.37982 0.91945 -0.10177
vt 0.00000 0.87500
f 76/76/76 77/77/77 78/78/78
v 0.353553 0.707107 -0.612372
vn 0.35309 0.70804 -0.61156
vt 0.16667 0.75000
v 0.331414 0.92388 -0.191342
vn 0.33065 0.92424 -0.19090
vt 0.08333 0.87500
v 0.612372 0.707107 -0.353553
vn 0.61156 0.70804 -0.35309
vt 0.08333 0.75000
f 79/79/79 80/80/80 81/81/81
v 0.353553 0.707107 -0.612372
vn 0.35309 0.70804 -0.61156
vt 0.16667 0.75000
v 0.191342 0.92388 -0.331414
vn 0.19090 0.92424 -0.33065
vt 0.16667 0.87500
v 0.331414 0.92388 -0.191342
vn 0.33065 0.92424 -0.19090
vt 0.08333 0.87500
f 82/82/82 83/83/83 84/84/84
v 0 0.707107 -0.707107
vn 0.00000 0.70804 -0.70617
vt 0.25000 0.75000
v 0.191342 0.92388 -0.331414
vn 0.19090 0.92424 -0.33065
vt 0.16667 0.87500
v 0.353553 0.707107 -0.612372
vn 0.35309 0.70804 -0.61156
vt 0.16667 0.75000
f 85/85/85 86/86/86 87/87/87
v 0 0.707107 -0.707107
vn 0.00000 0.70804 -0.70617
vt 0.25000 0.75000
v 0 0.92388 -0.382683
vn 0.00000 0.92424 -0.38180
vt 0.25000 0.87500
v 0.191342 0.92388 -0.331414
vn 0.19090 0.92424 -0.33065
vt 0.16667 0.87500
f 88/88/88 89/89/89 90/90/90
v -0.353553 0.707107 -0.612372
vn -0.35309 0.70804 -0.61156
vt 0.33333 0.75000
v 0 0.92388 -0.382683
vn 0.00000 0.92424 -0.38180
vt 0.25000 0.87500
v 0 0.707107 -0.707107
vn 0.00000 0.70804 -0.70617
vt 0.25000 0.75000
f 91/91/91 92/92/92 93/93/93
v -0.353553 0.707107 -0.612372
vn -0.35309 0.70804 -0.61156
vt 0.33333 0.75000
v -0.191342 0.92388 -0.331414
vn -0.19090 0.92424 -0.33065
vt 0.33333 0.87500
v 0 0.92388 -0.382683
vn 0.00000 0.92424 -0.38180
vt 0.25000 0.87500
f 94/94/94 95/95/95 96/96/96
v -0.612372 0.707107 -0.353553
vn -0.61156 0.70804 -0.35309
vt 0.41667 0.75000
v -0.191342 0.92388 -0.331414
vn -0.19090 0.92424 -0.33065
vt 0.33333 0.87500
v -0.353553 0.707107 -0.612372
vn -0.35309 0.70804 -0.61156
vt 0.33333 0.75000
f 97/97/97 98/98/98 99/99/99
v -0.612372 0.707107 -0.353553
vn -0.61156 0.70804 -0.35309
vt 0.41667 0.75000
v -0.331414 0.92388 -0.191342
vn -0.33065 0.92424 -0.19090
vt 0.41667 0.87500
v -0.191342 0.92388 -0.331414
vn -0.19090 0.92424 -0.33065
vt 0.33333 0.87500
f 100/100/100 101/101/101 102/102/102
v -0.707107 0.707107 0
vn -0.69386 0.69569 -0.18592
vt 0.50000 0.75000
v -0.331414 0.92388 -0.191342
vn -0.33065 0.92424 -0.19090
vt 0.41667 0.87500
v -0.612372 0.707107 -0.353553
vn -0.61156 0.70804 -0.35309
vt 0.41667 0.75000
f 103/103/103 104/104/104 105/105/105
v -0.707107 0.707107 0
vn -0.69386 0.69569 -0.18592
vt 0.50000 0.75000
v -0.382683 0.92388 0
vn -0.37982 0.91945 -0.10177
vt 0.50000 0.87500
v -0.331414 0.92388 -0.191342
vn -0.33065 0.92424 -0.19090
vt 0.41667 0.87500
f 106/106/106 107/107/107 108/108/108
v 0.331414 0.92388 -0.191342
vn 0.33065 0.92424 -0.19090
vt 0.08333 0.87500
v 0 1 0
vn 0.00000 0.99132 -0.13146
vt 0.00000 1.00000
v 0.382683 0.92388 0
vn 0.37982 0.91945 -0.10177
vt 0.00000 0.87500
f 109/109/109 110/110/110 111/111/111
v 0.191342 0.92388 -0.331414
vn 0.19090 0.92424 -0.33065
vt 0.16667 0.87500
v 0 1 0
vn 0.00000 0.99132 -0.13146
vt 0.08333 1.00000
v 0.331414 0.92388 -0.191342
vn 0.33065 0.92424 -0.19090
vt 0.08333 0.87500
f 112/112/112 113/113/113 114/114/114
v 0 0.92388 -0.382683
vn 0.00000 0.92424 -0.38180
vt 0.25000 0.87500
v 0 1 0
vn 0.00000 0.99132 -0.13146
vt 0.16667 1.00000
v 0.191342 0.92388 -0.331414
vn 0.19090 0.92424 -0.33065
vt 0.16667 0.87500
f 115/115/115 116/116/116 117/117/117
v -0.191342 0.92388 -0.331414
vn -0.19090 0.92424 -0.33065
vt 0.33333 0.87500
v 0 1 0
vn 0.00000 0.99132 -0.13146
vt 0.25000 1.00000
v 0 0.92388 -0.382683
vn 0.00000 0.92424 -0.38180
vt 0.25000 0.87500
f 118/118/118 119/119/119 120/120/120
v -0.331414 0.92388 -0.191342
vn -0.33065 0.92424 -0.19090
vt 0.41667 0.87500
v 0 1 0
vn 0.00000 0.99132 -0.13146
vt 0.33333 1.00000
v -0.191342 0.92388 -0.331414
vn -0.19090 0.92424 -0.33065
vt 0.33333 0.87500
f 121/121/121 122/122/122 123/123/123
v -0.382683 0.92388 0
vn -0.37982 0.91945 -0.10177
vt 0.50000 0.87500
v 0 1 0
vn 0.00000 0.99132 -0.13146
vt 0.41667 1.00000
v -0.331414 0.92388 -0.191342
vn -0.33065 0.92424 -0.19090
vt 0.41667 0.87500
f 124/124/124 125/125/125 126/126/126
v 1 0 0
vn 0.00000 0.00000 1.00000
vt 0.00000 0.00000
v -0.92388 0.382683 0
vn 0.00000 0.00000 1.00000
vt 0.00000 0.00000
v -1 0 0
vn 0.00000 0.00000 1.00000
vt 0.00000 0.00000
f 127/127/127 128/128/128 129/129/129
v 1 0 0
vn 0.00000 0.00000 1.00000
vt 0.00000 0.00000
v -0.707107 0.707107 0
vn 0.00000 0.00000 1.00000
vt 0.00000 0.00000
v -0.92388 0.382683 0
vn 0.00000 0.00000 1.00000
vt 0.00000 0.00000
f 130/130/130 131/131/131 132/132/132
v 1 0 0
vn 0.00000 0.00000 1.00000
vt 0.00000 0.00000
v -0.382683 0.92388 0
vn 0.00000 0.00000 1.00000
vt 0.00000 0.00000
v -0.707107 0.707107 0
vn 0.00000 0.00000 1.00000
vt 0.00000 0.00000
f 133/133/133 134/134/134 135/135/135
v 1 0 0
vn 0.00000 0.00000 1.00000
vt 0.00000 0.00000
v 0 1 0
vn 0.00000 0.00000 1.00000
vt 0.00000 0.00000
v -0.382683 0.92388 0
vn 0.00000 0.00000 1.00000
vt 0.00000 0.00000
f 136/136/136 137/137/137 138/138/138
v 1 0 0
vn 0.00000 0.00000 1.00000
vt 0.00000 0.00000
v 0.382683 0.92388 0
vn 0.00000 0.00000 1.00000
vt 0.00000 0.00000
v 0 1 0
vn 0.00000 0.00000 1.00000
vt 0.00000 0.00000
f 139/139/139 140/140/140 141/141/141
v 1 0 0
vn 0.00000 0.00000 1.00000
vt 0.00000 0.00000
v 0.707107 0.707107 0
vn 0.00000 0.00000 1.00000
vt 0.00000 0.00000
v 0.382683 0.92388 0
vn 0.00000 0.00000 1.00000
vt 0.00000 0.00000
f 142/142/142 143/143/143 144/144/144
v 1 0 0
vn 0.00000 0.00000 1.00000
vt 0.00000 0.00000
v 0.92388 0.382683 0
vn 0.00000 0.00000 1.00000
vt 0.00000 0.00000
v 0.707107 0.707107 0
vn 0.00000 0.00000 1.00000
vt 0.00000 0.00000
f 145/145/145 146/146/146 147/147/147
v 1 0 0
vn 0.00000 -1.00000 0.00000
vt 0.00000 0.00000
v 0.5 0 -0.866025
vn 0.00000 -1.00000 0.00000
vt 0.00000 0.00000
v 0.866025 0 -0.5
vn 0.00000 -1.00000 0.00000
vt 0.00000 0.00000
f 148/148/148 149/149/149 150/150/150
v 1 0 0
vn 0.00000 -1.00000 0.00000
vt 0.00000 0.00000
v 0 0 -1
vn 0.00000 -1.00000 0.00000
vt 0.00000 0.00000
v 0.5 0 -0.866025
vn 0.00000 -1.00000 0.00000
vt 0.00000 0.00000
f 151/151/151 152/152/152 153/153/153
v 1 0 0
vn 0.00000 -1.00000 0.00000
vt 0.00000 0.00000
v -0.5 0 -0.866025
vn 0.00000 -1.00000 0.00000
vt 0.00000 0.00000
v 0 0 -1
vn 0.00000 -1.00000 0.00000
vt 0.00000 0.00000
f 154/154/154 155/155/155 156/156/156
v 1 0 0
vn 0.00000 -1.00000 0.00000
vt 0.00000 0.00000
v -0.866025 0 -0.5
vn 0.00000 -1.00000 0.00000
vt 0.00000 0.00000
v -0.5 0 -0.866025
vn 0.00000 -1.00000 0.00000
vt 0.00000 0.00000
f 157/157/157 158/158/158 159/159/159
v 1 0 0
vn 0.00000 -1.00000 0.00000
vt 0.00000 0.00000
v -1 0 0
vn 0.00000 -1.00000 0.00000
vt 0.00000 0.00000
v -0.866025 0 -0.5
vn 0.00000 -1.00000 0.00000
vt 0.00000 0.00000
f 160/160/160 161/161/161 162/162/162
